
<svg version="1.1" id="Capa_1" xmlns="http://www.w3.org/2000/svg" xmlns:xlink="http://www.w3.org/1999/xlink" x="0px" y="0px"
	 viewBox="0 0 325.592 325.592" style="enable-background:new 0 0 325.592 325.592;" xml:space="preserve"   fill="url(#linearGradient)">
	    <defs>
    <linearGradient
       id="linearGradient">
      <stop style="stop-color:#61b4c3;stop-opacity:1;" offset="0"/>
      <stop style="stop-color:#9a5ba7;stop-opacity:0.9" offset="1"/>
    </linearGradient>
  </defs>
<path d="M308.092,8.463H17.5c-9.649,0-17.5,7.851-17.5,17.5v273.666c0,9.649,7.851,17.5,17.5,17.5h290.592
	c9.649,0,17.5-7.851,17.5-17.5V25.963C325.592,16.313,317.741,8.463,308.092,8.463z M273.465,35.296c7.995,0,14.5,6.505,14.5,14.5
	s-6.505,14.5-14.5,14.5c-7.995,0-14.5-6.505-14.5-14.5S265.47,35.296,273.465,35.296z M224.294,35.296c7.995,0,14.5,6.505,14.5,14.5
	s-6.505,14.5-14.5,14.5c-7.995,0-14.5-6.505-14.5-14.5S216.299,35.296,224.294,35.296z M44.399,42.296h58.5
	c4.142,0,7.5,3.357,7.5,7.5s-3.358,7.5-7.5,7.5h-58.5c-4.142,0-7.5-3.357-7.5-7.5S40.257,42.296,44.399,42.296z M117.551,240.712
	c0-24.988,20.254-45.246,45.244-45.246s45.244,20.258,45.244,45.246s-20.254,45.246-45.244,45.246S117.551,265.7,117.551,240.712z
	 M297.796,286.806c0,1.258-1.024,2.283-2.284,2.283h-44.361c3.73-6.803,6.66-13.991,8.726-21.475H269
	c7.606,0,13.795-6.188,13.795-13.795v-26.215c0-7.607-6.189-13.795-13.795-13.795h-9.123c-2.192-7.941-5.346-15.556-9.41-22.723
	l6.449-6.45c2.606-2.605,4.041-6.07,4.039-9.76c-0.001-3.686-1.436-7.147-4.038-9.747l-18.537-18.539
	c-2.604-2.604-6.068-4.037-9.756-4.037c-3.686,0-7.15,1.434-9.753,4.037l-6.449,6.448c-7.161-4.061-14.775-7.213-22.725-9.408
	v-9.124c0-7.606-6.188-13.795-13.793-13.795h-26.219c-7.605,0-13.793,6.188-13.793,13.795v9.124
	c-7.946,2.194-15.562,5.348-22.724,9.408l-6.448-6.449c-2.604-2.602-6.068-4.036-9.753-4.036c-3.687,0-7.151,1.433-9.757,4.037
	l-18.537,18.538c-2.602,2.602-4.036,6.063-4.037,9.748c-0.002,3.688,1.432,7.154,4.036,9.759l6.45,6.451
	c-4.062,7.164-7.215,14.779-9.408,22.723h-9.123c-7.607,0-13.797,6.188-13.797,13.795v26.215c0,7.607,6.19,13.795,13.797,13.795
	h9.123c2.065,7.483,4.995,14.672,8.725,21.475H30.08c-1.259,0-2.284-1.025-2.284-2.283V98.336h270V286.806z"/>

</svg>
